{
	"asset":{
		"generator":"Khronos glTF Blender I/O v3.6.10",
		"version":"2.0"
	},
	"extensionsUsed":[
		"KHR_materials_emissive_strength"
	],
	"scene":0,
	"scenes":[
		{
			"name":"Scene",
			"nodes":[
				0
			]
		}
	],
	"nodes":[
		{
			"mesh":0,
			"name":"Cube"
		}
	],
	"animations":[
		{
			"channels":[
				{
					"sampler":0,
					"target":{
						"node":0,
						"path":"rotation"
					}
				},
				{
					"sampler":1,
					"target":{
						"node":0,
						"path":"scale"
					}
				}
			],
			"name":"Cube",
			"samplers":[
				{
					"input":5,
					"interpolation":"LINEAR",
					"output":6
				},
				{
					"input":5,
					"interpolation":"LINEAR",
					"output":7
				}
			]
		}
	],
	"materials":[
		{
			"doubleSided":true,
			"emissiveFactor":[
				1,
				0.009217188666922083,
				0.004682789393801114
			],
			"extensions":{
				"KHR_materials_emissive_strength":{
					"emissiveStrength":4.405122697353363
				}
			},
			"name":"Material",
			"pbrMetallicRoughness":{
				"baseColorFactor":[
					0.8000000715255737,
					0.004591438919305801,
					0.0008342820801772177,
					1
				],
				"metallicFactor":0.6602739691734314,
				"roughnessFactor":0.023287683725357056
			}
		}
	],
	"meshes":[
		{
			"name":"Cube",
			"primitives":[
				{
					"attributes":{
						"POSITION":0,
						"NORMAL":1,
						"TEXCOORD_0":2,
						"TANGENT":3
					},
					"indices":4,
					"material":0
				}
			]
		}
	],
	"accessors":[
		{
			"bufferView":0,
			"componentType":5126,
			"count":10368,
			"max":[
				1.100000023841858,
				1.100000023841858,
				1.100000023841858
			],
			"min":[
				-1.100000023841858,
				-1.100000023841858,
				-1.100000023841858
			],
			"type":"VEC3"
		},
		{
			"bufferView":1,
			"componentType":5126,
			"count":10368,
			"type":"VEC3"
		},
		{
			"bufferView":2,
			"componentType":5126,
			"count":10368,
			"type":"VEC2"
		},
		{
			"bufferView":3,
			"componentType":5126,
			"count":10368,
			"type":"VEC4"
		},
		{
			"bufferView":4,
			"componentType":5123,
			"count":18432,
			"type":"SCALAR"
		},
		{
			"bufferView":5,
			"componentType":5126,
			"count":150,
			"max":[
				5
			],
			"min":[
				0.03333333333333333
			],
			"type":"SCALAR"
		},
		{
			"bufferView":6,
			"componentType":5126,
			"count":150,
			"type":"VEC4"
		},
		{
			"bufferView":7,
			"componentType":5126,
			"count":150,
			"type":"VEC3"
		}
	],
	"bufferViews":[
		{
			"buffer":0,
			"byteLength":124416,
			"byteOffset":0,
			"target":34962
		},
		{
			"buffer":0,
			"byteLength":124416,
			"byteOffset":124416,
			"target":34962
		},
		{
			"buffer":0,
			"byteLength":82944,
			"byteOffset":248832,
			"target":34962
		},
		{
			"buffer":0,
			"byteLength":165888,
			"byteOffset":331776,
			"target":34962
		},
		{
			"buffer":0,
			"byteLength":36864,
			"byteOffset":497664,
			"target":34963
		},
		{
			"buffer":0,
			"byteLength":600,
			"byteOffset":534528
		},
		{
			"buffer":0,
			"byteLength":2400,
			"byteOffset":535128
		},
		{
			"buffer":0,
			"byteLength":1800,
			"byteOffset":537528
		}
	],
	"buffers":[
		{
			"byteLength":539328,
			"uri":"data:application/octet-stream;base64,"
		}
	]
}
